<svg xmlns="http://www.w3.org/2000/svg" width="1200" height="800" viewBox="0 0 1200 800">
  <defs>
    <style>
      .bg { fill: #1a202c; }
      .panel { fill: rgba(255, 255, 255, 0.05); stroke: rgba(255, 255, 255, 0.1); stroke-width: 1; rx: 12; }
      .header { font: bold 24px sans-serif; fill: #f7fafc; text-anchor: start; }
      .title { font: bold 18px sans-serif; fill: #f7fafc; text-anchor: start; }
      .metric { font: bold 32px sans-serif; fill: #4fd1c7; text-anchor: middle; }
      .label { font: 14px sans-serif; fill: #a0aec0; text-anchor: middle; }
      .chart-line { stroke: #4fd1c7; stroke-width: 3; fill: none; }
      .chart-area { fill: rgba(79, 209, 199, 0.1); }
      .progress-bg { fill: rgba(255, 255, 255, 0.1); rx: 10; }
      .progress-fill { fill: #4fd1c7; rx: 10; }
    </style>
    <linearGradient id="glassmorphism" x1="0%" y1="0%" x2="100%" y2="100%">
      <stop offset="0%" style="stop-color:rgba(255,255,255,0.1);stop-opacity:1" />
      <stop offset="100%" style="stop-color:rgba(255,255,255,0.05);stop-opacity:1" />
    </linearGradient>
  </defs>
  
  <!-- Background -->
  <rect width="1200" height="800" class="bg"/>
  
  <!-- Header -->
  <text x="40" y="50" class="header">GoFortress Coverage Dashboard</text>
  <text x="40" y="75" style="font: 14px sans-serif; fill: #a0aec0;">Real-time coverage analytics and insights</text>
  
  <!-- Overview Metrics Panel -->
  <rect x="40" y="100" width="520" height="180" class="panel" fill="url(#glassmorphism)"/>
  <text x="60" y="130" class="title">Coverage Overview</text>
  
  <!-- Coverage Percentage -->
  <text x="150" y="180" class="metric">87.2%</text>
  <text x="150" y="200" class="label">Overall Coverage</text>
  <rect x="100" y="210" width="100" height="8" class="progress-bg"/>
  <rect x="100" y="210" width="87" height="8" class="progress-fill"/>
  
  <!-- Packages -->
  <text x="350" y="180" class="metric">45/50</text>
  <text x="350" y="200" class="label">Packages Covered</text>
  <rect x="300" y="210" width="100" height="8" class="progress-bg"/>
  <rect x="300" y="210" width="90" height="8" class="progress-fill"/>
  
  <!-- Quality Score -->
  <text x="500" y="160" style="font: bold 20px sans-serif; fill: #4fd1c7; text-anchor: middle;">A+</text>
  <text x="500" y="180" class="label">Quality Score</text>
  <text x="500" y="200" style="font: 14px sans-serif; fill: #4fd1c7; text-anchor: middle;">92/100</text>
  
  <!-- Trend Chart Panel -->
  <rect x="40" y="300" width="520" height="220" class="panel" fill="url(#glassmorphism)"/>
  <text x="60" y="330" class="title">Coverage Trend (30 Days)</text>
  
  <!-- Chart Area -->
  <g transform="translate(80, 360)">
    <!-- Chart background -->
    <rect width="460" height="140" fill="rgba(0,0,0,0.2)" rx="4"/>
    <!-- Grid lines -->
    <g stroke="rgba(255,255,255,0.1)" stroke-width="1">
      <line x1="0" y1="35" x2="460" y2="35"/>
      <line x1="0" y1="70" x2="460" y2="70"/>
      <line x1="0" y1="105" x2="460" y2="105"/>
      <line x1="115" y1="0" x2="115" y2="140"/>
      <line x1="230" y1="0" x2="230" y2="140"/>
      <line x1="345" y1="0" x2="345" y2="140"/>
    </g>
    <!-- Trend line -->
    <path d="M 0 120 Q 100 110 200 80 Q 300 70 460 50" class="chart-line"/>
    <!-- Area under curve -->
    <path d="M 0 120 Q 100 110 200 80 Q 300 70 460 50 L 460 140 L 0 140 Z" class="chart-area"/>
    <!-- Data points -->
    <circle cx="0" cy="120" r="4" fill="#4fd1c7"/>
    <circle cx="115" cy="110" r="4" fill="#4fd1c7"/>
    <circle cx="230" cy="80" r="4" fill="#4fd1c7"/>
    <circle cx="345" cy="70" r="4" fill="#4fd1c7"/>
    <circle cx="460" cy="50" r="4" fill="#4fd1c7"/>
  </g>
  
  <!-- Package Breakdown Panel -->
  <rect x="580" y="100" width="580" height="420" class="panel" fill="url(#glassmorphism)"/>
  <text x="600" y="130" class="title">Package Coverage Breakdown</text>
  
  <!-- Package Items -->
  <g transform="translate(600, 160)">
    <!-- internal/parser -->
    <text x="0" y="20" style="font: 14px sans-serif; fill: #f7fafc;">internal/parser</text>
    <text x="500" y="20" style="font: 14px sans-serif; fill: #4fd1c7; text-anchor: end;">95.8%</text>
    <rect x="0" y="25" width="520" height="8" class="progress-bg"/>
    <rect x="0" y="25" width="498" height="8" class="progress-fill"/>
    
    <!-- internal/badge -->
    <text x="0" y="60" style="font: 14px sans-serif; fill: #f7fafc;">internal/badge</text>
    <text x="500" y="60" style="font: 14px sans-serif; fill: #4fd1c7; text-anchor: end;">85.4%</text>
    <rect x="0" y="65" width="520" height="8" class="progress-bg"/>
    <rect x="0" y="65" width="444" height="8" class="progress-fill"/>
    
    <!-- internal/report -->
    <text x="0" y="100" style="font: 14px sans-serif; fill: #f7fafc;">internal/report</text>
    <text x="500" y="100" style="font: 14px sans-serif; fill: #4fd1c7; text-anchor: end;">82.1%</text>
    <rect x="0" y="105" width="520" height="8" class="progress-bg"/>
    <rect x="0" y="105" width="427" height="8" class="progress-fill"/>
    
    <!-- internal/github -->
    <text x="0" y="140" style="font: 14px sans-serif; fill: #f7fafc;">internal/github</text>
    <text x="500" y="140" style="font: 14px sans-serif; fill: #fbbf24; text-anchor: end;">67.3%</text>
    <rect x="0" y="145" width="520" height="8" class="progress-bg"/>
    <rect x="0" y="145" width="350" height="8" fill="#fbbf24"/>
    
    <!-- cmd/coverage -->
    <text x="0" y="180" style="font: 14px sans-serif; fill: #f7fafc;">cmd/coverage</text>
    <text x="500" y="180" style="font: 14px sans-serif; fill: #4fd1c7; text-anchor: end;">92.5%</text>
    <rect x="0" y="185" width="520" height="8" class="progress-bg"/>
    <rect x="0" y="185" width="481" height="8" class="progress-fill"/>
  </g>
  
  <!-- Recent Activity Panel -->
  <rect x="40" y="540" width="520" height="180" class="panel" fill="url(#glassmorphism)"/>
  <text x="60" y="570" class="title">Recent Activity</text>
  
  <g transform="translate(60, 590)">
    <text x="0" y="20" style="font: 12px sans-serif; fill: #a0aec0;">🔄 2 minutes ago</text>
    <text x="120" y="20" style="font: 12px sans-serif; fill: #f7fafc;">PR #157 updated coverage to 88.1% (+0.9%)</text>
    
    <text x="0" y="45" style="font: 12px sans-serif; fill: #a0aec0;">✅ 15 minutes ago</text>
    <text x="120" y="45" style="font: 12px sans-serif; fill: #f7fafc;">Main branch deployed with 87.2% coverage</text>
    
    <text x="0" y="70" style="font: 12px sans-serif; fill: #a0aec0;">📈 1 hour ago</text>
    <text x="120" y="70" style="font: 12px sans-serif; fill: #f7fafc;">Weekly report generated (↗ improving trend)</text>
    
    <text x="0" y="95" style="font: 12px sans-serif; fill: #a0aec0;">🎯 3 hours ago</text>
    <text x="120" y="95" style="font: 12px sans-serif; fill: #f7fafc;">Coverage milestone: 85%+ achieved</text>
  </g>
  
  <!-- Analytics Summary Panel -->
  <rect x="580" y="540" width="580" height="180" class="panel" fill="url(#glassmorphism)"/>
  <text x="600" y="570" class="title">Analytics Summary</text>
  
  <g transform="translate(620, 590)">
    <!-- Velocity -->
    <text x="0" y="20" style="font: 14px sans-serif; fill: #a0aec0;">Coverage Velocity</text>
    <text x="140" y="20" style="font: bold 16px sans-serif; fill: #4fd1c7;">+2.1%/week</text>
    
    <!-- Risk Assessment -->
    <text x="0" y="45" style="font: 14px sans-serif; fill: #a0aec0;">Risk Assessment</text>
    <text x="140" y="45" style="font: bold 16px sans-serif; fill: #48bb78;">Low</text>
    
    <!-- Team Impact -->
    <text x="300" y="20" style="font: 14px sans-serif; fill: #a0aec0;">Top Contributor</text>
    <text x="420" y="20" style="font: bold 16px sans-serif; fill: #4fd1c7;">Alice (+2.3%)</text>
    
    <!-- Prediction -->
    <text x="300" y="45" style="font: 14px sans-serif; fill: #a0aec0;">7-day Forecast</text>
    <text x="420" y="45" style="font: bold 16px sans-serif; fill: #4fd1c7;">89.1%</text>
  </g>
  
  <!-- Glass morphism effect overlay -->
  <rect width="1200" height="800" fill="none" stroke="rgba(255,255,255,0.1)" stroke-width="1"/>
  
  <!-- Placeholder watermark -->
  <text x="1100" y="780" style="font: 12px sans-serif; fill: #4a5568; text-anchor: end;">Dashboard Placeholder</text>
</svg>